<svg viewBox="0 0 270 360" xmlns="http://www.w3.org/2000/svg">
  <rect width="270" height="360" fill="#1b5e20"/>
  <rect x="5" y="5" width="260" height="350" fill="none" stroke="white" stroke-width="2"/>
  
  <line x1="5" y1="180" x2="265" y2="180" stroke="white" stroke-width="2"/>
  
  <circle cx="135" cy="180" r="45" fill="none" stroke="white" stroke-width="2"/>
  <circle cx="135" cy="180" r="3" fill="white"/>

  <!-- TOP PENALTY AREA -->
  <path d="M 22.5 5 A 90 90 0 0 0 112.5 95 L 157.5 95 A 90 90 0 0 0 247.5 5" fill="none" stroke="white" stroke-width="2"/>
  <circle cx="135" cy="95" r="3" fill="white"/>
  <circle cx="135" cy="155" r="3" fill="white"/>
  <rect x="112.5" y="1" width="45" height="4" fill="none" stroke="white" stroke-width="2"/>

  <!-- BOTTOM PENALTY AREA -->
  <path d="M 22.5 355 A 90 90 0 0 1 112.5 265 L 157.5 265 A 90 90 0 0 1 247.5 355" fill="none" stroke="white" stroke-width="2"/>
  <circle cx="135" cy="265" r="3" fill="white"/>
  <circle cx="135" cy="205" r="3" fill="white"/>
  <rect x="112.5" y="355" width="45" height="4" fill="none" stroke="white" stroke-width="2"/>
  
  <!-- Corner arcs (r=7.5) -->
  <path d="M 5 12.5 A 7.5 7.5 0 0 0 12.5 5" fill="none" stroke="white" stroke-width="2"/>
  <path d="M 257.5 5 A 7.5 7.5 0 0 0 265 12.5" fill="none" stroke="white" stroke-width="2"/>
  <path d="M 5 347.5 A 7.5 7.5 0 0 1 12.5 355" fill="none" stroke="white" stroke-width="2"/>
  <path d="M 257.5 355 A 7.5 7.5 0 0 1 265 347.5" fill="none" stroke="white" stroke-width="2"/>
</svg>
